<svg width="187" height="176" viewBox="0 0 187 176" fill="none" xmlns="http://www.w3.org/2000/svg">
<path d="M102.929 162.277L102.92 162.285L102.912 162.293C100.259 164.982 96.8722 166.501 93.3938 166.919V98.3737V46.3537C94.9091 44.2859 96.5473 42.2558 98.3737 40.3729C117.172 21.7694 147.681 21.7689 166.562 40.3871C185.352 59.0796 185.348 89.27 166.566 107.877C162.36 112.001 147.432 124.644 132.998 136.787C130.135 139.196 127.294 141.583 124.568 143.874C120.445 147.337 116.582 150.582 113.292 153.358C107.876 157.927 103.894 161.32 102.929 162.277Z" fill="white" stroke="#1B1B1B" stroke-width="4"/>
<path d="M91.3938 169.039C86.7479 169.039 82.019 167.313 78.4516 163.698C74.8841 160.165 23.3642 117.683 14.819 109.302C-4.76029 89.9103 -4.76029 58.4397 14.819 38.9657C34.4812 19.5739 66.256 19.5739 85.8353 38.9657C87.9093 41.1021 89.7345 43.4028 91.3938 45.7036L109.206 89.2119L91.3938 169.039Z" fill="#1B1B1B"/>
<g clip-path="url(#clip0)">
<path d="M76.8248 25.795C76.7686 25.8755 76.7186 25.9622 76.6748 26.0426C76.1811 26.7421 76.1374 27.652 76.5499 28.3948C76.9686 29.1438 77.7685 29.5894 78.6247 29.5585L80.7246 29.5585L80.7246 31.3411L78.6247 31.3411C77.9373 31.3164 77.2748 31.6135 76.8248 32.1334C76.7686 32.2139 76.7186 32.3006 76.6748 32.381C76.1811 33.0805 76.1374 33.9904 76.5498 34.7332C76.9686 35.4822 77.7685 35.9278 78.6247 35.8969L80.7246 35.8969L80.7746 38.5214C80.7746 40.3164 81.6871 41.7525 82.8745 42.879L82.8745 65.4596L82.8245 65.5091C77.8498 66.0786 71.7438 67.6694 67.3753 71.9961C65.1317 74.2182 63.3755 77.1832 62.6756 80.9094C61.8693 85.1619 63.1443 88.5787 64.3755 91.2093C65.6067 93.84 66.6191 95.7465 66.5754 97.6468C66.5441 99.3242 64.2567 102.37 61.4256 106.709C58.5945 111.048 55.6197 116.928 55.6259 125.13C55.6197 133.492 59.6695 139.992 66.1754 143.996C72.6563 147.989 81.4434 149.722 91.3741 149.542C91.4116 149.542 91.4366 149.542 91.4741 149.542C103.873 149.765 114.517 147.023 121.023 140.58C124.954 136.686 127.222 131.419 127.222 125.13C127.222 116.922 124.26 111.054 121.423 106.709C118.585 102.363 116.304 99.3242 116.273 97.6468C116.235 95.7651 117.317 93.84 118.573 91.2093C119.829 88.5787 121.079 85.1742 120.273 80.9094C119.135 74.8805 115.304 70.9005 110.973 68.6288C107.367 66.7409 103.411 65.93 99.9737 65.5586L99.9737 42.879C101.161 41.7525 102.074 40.3164 102.074 38.5214L102.124 35.8969L104.223 35.8969C105.498 35.8969 106.523 34.8817 106.523 33.619C106.523 32.3563 105.498 31.3411 104.223 31.3411L102.124 31.3411L102.124 29.5585L104.223 29.5585C105.498 29.5585 106.523 28.5433 106.523 27.2806C106.523 26.0179 105.498 25.0027 104.223 25.0027L102.124 25.0027L102.074 24.6561C102.08 21.1465 99.1674 18.262 95.6239 18.2682L87.2743 18.2187C87.2493 18.2187 87.2493 18.2682 87.2243 18.2682C85.4806 18.2868 83.8307 18.9553 82.6745 20.1004C81.4996 21.2641 80.7746 22.8982 80.7746 24.6561L80.7246 25.0027L78.6247 25.0027C77.9373 24.978 77.2748 25.2751 76.8248 25.795ZM85.8744 23.2696C86.2119 22.9353 86.6868 22.7249 87.2243 22.7249L95.6239 22.7249C96.7051 22.7187 97.5238 23.5296 97.5238 24.6066L97.5238 38.4718C97.5238 39.1527 97.1925 39.7408 96.5738 40.106L95.4239 40.7497L95.4739 41.9877L95.4739 66.8461C95.4426 66.9885 95.4239 67.1432 95.4239 67.2918C95.3926 67.5208 95.3926 67.756 95.4239 67.985C95.4489 68.1212 95.4801 68.2512 95.5239 68.3812L95.4739 89.7238C92.874 88.7458 89.9742 88.7458 87.3743 89.7238L87.3743 68.2326C87.3743 68.1955 87.3743 68.1707 87.3743 68.1336L87.4243 67.985C87.4868 67.6879 87.4868 67.3908 87.4243 67.0937C87.4118 67.007 87.393 66.9266 87.3743 66.8461L87.4243 42.0372L87.4243 40.7497L86.2744 40.106C85.6494 39.7346 85.3244 39.1527 85.3244 38.4719L85.3244 24.6066C85.3244 24.0619 85.5369 23.6038 85.8744 23.2696ZM87.5743 25.3494C87.3493 25.5722 87.2243 25.8446 87.2243 26.1912L87.2243 37.9767C87.2243 38.6699 87.7743 39.2146 88.4742 39.2146C88.8242 39.2146 89.143 39.0475 89.3742 38.8185C89.6054 38.5895 89.7242 38.3233 89.7242 37.9767L89.7242 26.1912C89.7242 25.4979 89.1742 24.9532 88.4742 24.9532C88.1243 24.9532 87.7993 25.1265 87.5743 25.3494ZM93.474 25.3494C93.249 25.5722 93.124 25.8446 93.124 26.1912L93.124 37.9767C93.124 38.6699 93.674 39.2146 94.3739 39.2146C94.7239 39.2146 95.0427 39.0475 95.2739 38.8185C95.5051 38.5895 95.6739 38.2738 95.6739 37.9271L95.6239 26.1912C95.6239 25.4979 95.0739 24.9532 94.3739 24.9532C94.024 24.9532 93.699 25.1265 93.474 25.3494ZM70.5752 75.1653C73.6875 72.0827 78.5685 70.69 82.8745 70.1143L82.8745 92.893C79.081 97.2816 79.231 103.942 83.4245 108.095C87.8243 112.453 95.0239 112.453 99.4237 108.095C103.617 103.942 103.767 97.2816 99.9737 92.893L99.9737 70.1143C102.899 70.4981 106.105 71.2099 108.823 72.6398C112.279 74.4534 114.942 77.1027 115.823 81.7513C116.404 84.8152 115.617 86.9445 114.473 89.3276C113.329 91.7107 111.654 94.2486 111.723 97.6963L111.773 97.7458C111.861 102.066 115.004 105.068 117.623 109.086C120.241 113.103 122.673 117.925 122.672 125.08C122.672 130.342 120.954 134.309 117.823 137.41C112.629 142.554 103.18 145.216 91.4741 144.987L91.4241 145.036C82.0371 145.222 74.0437 143.52 68.6253 140.183C63.2068 136.847 60.1757 132.075 60.1757 125.08C60.1757 117.925 62.6068 113.103 65.2254 109.086C67.844 105.068 70.9876 102.066 71.0751 97.7458C71.1501 94.3166 69.5877 91.7169 68.4753 89.3276C67.3628 86.9383 66.5441 84.8276 67.1253 81.7513C67.6691 78.873 68.9252 76.7994 70.5752 75.1653ZM86.6243 95.4184C89.293 92.7754 93.5552 92.7754 96.2238 95.4184C98.8925 98.0615 98.8925 102.283 96.2238 104.926C93.5552 107.569 89.2929 107.569 86.6243 104.926C83.9557 102.283 83.9557 98.0615 86.6243 95.4184ZM79.1247 122.357C78.8935 122.586 78.7247 122.901 78.7247 123.248L78.7247 127.011C78.7185 127.711 79.3122 128.299 80.0247 128.299L102.824 128.299C103.523 128.299 104.123 127.705 104.123 127.011L104.123 123.248C104.123 122.555 103.53 121.967 102.824 121.961L80.0247 121.961C79.6747 121.961 79.356 122.128 79.1247 122.357Z" fill="#878787"/>
</g>
<defs>
<clipPath id="clip0">
<rect width="128.267" height="120.507" fill="white" transform="matrix(0.7105 -0.703697 0.7105 0.703697 9.93945 90.9531)"/>
</clipPath>
</defs>
</svg>
