<svg width="299" height="66" viewBox="0 0 299 66" fill="none" xmlns="http://www.w3.org/2000/svg">
<g clip-path="url(#clip0)">
<path d="M43.2478 61.6917L43.2397 61.6998L43.2316 61.708C42.617 62.3331 41.8896 62.7832 41.1111 63.0625V35.0138V13.0141C41.6735 12.2622 42.2691 11.538 42.9172 10.8666C50.5267 3.3179 62.8743 3.31724 70.5188 10.8803C78.1247 18.4755 78.1207 30.7357 70.5227 38.292C68.7576 40.0284 62.4112 45.4244 56.2031 50.6659C54.9772 51.701 53.7602 52.727 52.5915 53.7124C50.824 55.2027 49.167 56.5998 47.7566 57.7939C45.4632 59.7355 43.7039 61.2383 43.2478 61.6917Z" fill="white" stroke="#1B1B1B" stroke-width="4"/>
<path d="M39.1111 65.4073C37.12 65.4073 35.0933 64.6652 33.5644 63.1102C32.0356 61.5905 9.95555 43.319 6.29333 39.7142C-2.09778 31.3736 -2.09778 17.8379 6.29333 9.46196C14.72 1.1214 28.3378 1.1214 36.7289 9.46196C37.6178 10.3808 38.4 11.3704 39.1111 12.36L46.7449 31.0732L39.1111 65.4073Z" fill="#1B1B1B"/>
<g clip-path="url(#clip1)">
<path d="M32.8671 3.79678C32.843 3.83139 32.8215 3.86866 32.8028 3.90327C32.5912 4.20411 32.5724 4.59547 32.7492 4.91494C32.9287 5.23708 33.2715 5.42877 33.6385 5.41546L34.5384 5.41546V6.1822L33.6385 6.1822C33.3438 6.17155 33.0599 6.29934 32.8671 6.52297C32.843 6.55758 32.8215 6.59485 32.8028 6.62946C32.5912 6.9303 32.5724 7.32166 32.7492 7.64114C32.9287 7.96328 33.2715 8.15496 33.6385 8.14165H34.5384L34.5598 9.27046C34.5598 10.0425 34.9509 10.6602 35.4598 11.1447L35.4598 20.8568L35.4384 20.8781C33.3063 21.123 30.6895 21.8072 28.8173 23.6682C27.8557 24.6239 27.1031 25.8992 26.8031 27.5019C26.4576 29.3309 27.004 30.8005 27.5316 31.9319C28.0593 33.0634 28.4932 33.8834 28.4744 34.7007C28.461 35.4222 27.4807 36.7321 26.2674 38.5983C25.0541 40.4646 23.7791 42.9938 23.7818 46.5213C23.7791 50.1181 25.5148 52.9135 28.303 54.636C31.0806 56.3532 34.8464 57.0987 39.1025 57.0215C39.1185 57.0215 39.1292 57.0215 39.1453 57.0215C44.4593 57.1173 49.0207 55.9379 51.809 53.1664C53.4937 51.4919 54.466 49.2262 54.466 46.5213C54.466 42.9911 53.1964 40.4673 51.9804 38.5983C50.7644 36.7294 49.7867 35.4222 49.7733 34.7007C49.7573 33.8914 50.2206 33.0634 50.759 31.932C51.2974 30.8005 51.8331 29.3362 51.4875 27.5019C51.0001 24.9088 49.3582 23.1969 47.502 22.2199C45.9566 21.4079 44.2611 21.0591 42.788 20.8994V11.1447C43.2969 10.6602 43.6879 10.0425 43.6879 9.27046L43.7094 8.14165H44.6093C45.1557 8.14165 45.595 7.70503 45.595 7.16192C45.595 6.61881 45.1557 6.1822 44.6093 6.1822L43.7094 6.1822V5.41546L44.6093 5.41546C45.1557 5.41546 45.595 4.97884 45.595 4.43573C45.595 3.89262 45.1557 3.456 44.6093 3.456L43.7094 3.456L43.6879 3.30692C43.6906 1.79739 42.4425 0.556761 40.9238 0.559423L37.3454 0.538125C37.3347 0.538125 37.3347 0.559423 37.324 0.559423C36.5767 0.567411 35.8696 0.854939 35.3741 1.34746C34.8705 1.84798 34.5598 2.55082 34.5598 3.30692L34.5384 3.456H33.6385C33.3438 3.44535 33.0599 3.57315 32.8671 3.79678ZM36.7454 2.71056C36.8901 2.5668 37.0936 2.47628 37.324 2.47628L40.9238 2.47628C41.3872 2.47362 41.738 2.82238 41.738 3.28562V9.24917C41.738 9.54202 41.5961 9.79494 41.3309 9.95201L40.8381 10.2289L40.8595 10.7614V21.4531C40.8461 21.5144 40.8381 21.5809 40.8381 21.6448C40.8247 21.7433 40.8247 21.8445 40.8381 21.943C40.8488 22.0016 40.8622 22.0575 40.8809 22.1134L40.8595 31.293C39.7453 30.8724 38.5025 30.8724 37.3883 31.293V22.0495C37.3883 22.0335 37.3883 22.0229 37.3883 22.0069L37.4097 21.943C37.4365 21.8152 37.4365 21.6874 37.4097 21.5596C37.4043 21.5224 37.3963 21.4878 37.3883 21.4531L37.4097 10.7826V10.2289L36.9169 9.95201C36.649 9.79227 36.5097 9.54202 36.5097 9.24917V3.28562C36.5097 3.05133 36.6008 2.85432 36.7454 2.71056ZM37.474 3.60509C37.3776 3.70094 37.324 3.81808 37.324 3.96717V9.03618C37.324 9.33436 37.5597 9.56864 37.8597 9.56864C38.0097 9.56864 38.1463 9.49676 38.2454 9.39825C38.3445 9.29975 38.3954 9.18527 38.3954 9.03618V3.96717C38.3954 3.66899 38.1597 3.43471 37.8597 3.43471C37.7097 3.43471 37.5704 3.50925 37.474 3.60509ZM40.0024 3.60509C39.906 3.70094 39.8524 3.81808 39.8524 3.96717V9.03618C39.8524 9.33436 40.0881 9.56864 40.3881 9.56864C40.5381 9.56864 40.6747 9.49676 40.7738 9.39825C40.8729 9.29975 40.9452 9.16397 40.9452 9.01488L40.9238 3.96717C40.9238 3.66899 40.6881 3.43471 40.3881 3.43471C40.2381 3.43471 40.0988 3.50925 40.0024 3.60509ZM30.1886 25.0313C31.5225 23.7054 33.6144 23.1064 35.4598 22.8588V32.6561C33.834 34.5437 33.8983 37.4083 35.6955 39.1947C37.5811 41.069 40.6667 41.069 42.5523 39.1947C44.3495 37.4083 44.4138 34.5437 42.788 32.6561L42.788 22.8588C44.0415 23.0239 45.4155 23.3301 46.5807 23.9451C48.0618 24.7251 49.2028 25.8646 49.5805 27.864C49.8296 29.1818 49.4921 30.0976 49.002 31.1226C48.5118 32.1476 47.794 33.2391 47.8234 34.722L47.8449 34.7433C47.8824 36.6016 49.2296 37.8928 50.3519 39.6207C51.4742 41.3485 52.5161 43.4224 52.5161 46.5C52.5161 48.763 51.7795 50.4695 50.4376 51.8033C48.2118 54.0157 44.162 55.1605 39.1453 55.062L39.1239 55.0833C35.1009 55.1632 31.6752 54.431 29.353 52.9961C27.0308 51.5611 25.7317 49.5084 25.7317 46.5C25.7317 43.4224 26.7736 41.3485 27.8959 39.6207C29.0182 37.8928 30.3654 36.6016 30.4029 34.7433C30.435 33.2684 29.7654 32.1503 29.2887 31.1226C28.8119 30.095 28.461 29.1871 28.7101 27.864C28.9432 26.626 29.4815 25.7341 30.1886 25.0313ZM37.0669 33.7423C38.2105 32.6055 40.0372 32.6055 41.1809 33.7423C42.3246 34.8791 42.3246 36.6948 41.1809 37.8316C40.0372 38.9684 38.2105 38.9684 37.0669 37.8316C35.9232 36.6948 35.9232 34.8791 37.0669 33.7423ZM33.8527 45.3286C33.7536 45.4271 33.6813 45.5629 33.6813 45.712L33.6813 47.3307C33.6786 47.6315 33.9331 47.8844 34.2384 47.8844H44.0094C44.3093 47.8844 44.5665 47.6289 44.5665 47.3307V45.712C44.5665 45.4138 44.312 45.1609 44.0094 45.1582L34.2384 45.1582C34.0884 45.1582 33.9518 45.2301 33.8527 45.3286Z" fill="#878787"/>
</g>
<path d="M107.33 41.072V50H101.498V41L91.7421 24.8H97.9341L104.666 35.996L111.398 24.8H117.122L107.33 41.072ZM126.238 50.288C124.198 50.288 122.362 49.868 120.73 49.028C119.122 48.164 117.862 46.976 116.95 45.464C116.038 43.952 115.582 42.236 115.582 40.316C115.582 38.396 116.038 36.68 116.95 35.168C117.862 33.656 119.122 32.48 120.73 31.64C122.362 30.776 124.198 30.344 126.238 30.344C128.278 30.344 130.102 30.776 131.71 31.64C133.318 32.48 134.578 33.656 135.49 35.168C136.402 36.68 136.858 38.396 136.858 40.316C136.858 42.236 136.402 43.952 135.49 45.464C134.578 46.976 133.318 48.164 131.71 49.028C130.102 49.868 128.278 50.288 126.238 50.288ZM126.238 45.68C127.678 45.68 128.854 45.2 129.766 44.24C130.702 43.256 131.17 41.948 131.17 40.316C131.17 38.684 130.702 37.388 129.766 36.428C128.854 35.444 127.678 34.952 126.238 34.952C124.798 34.952 123.61 35.444 122.674 36.428C121.738 37.388 121.27 38.684 121.27 40.316C121.27 41.948 121.738 43.256 122.674 44.24C123.61 45.2 124.798 45.68 126.238 45.68ZM160.124 30.632V50H154.796V47.696C154.052 48.536 153.164 49.184 152.132 49.64C151.1 50.072 149.984 50.288 148.784 50.288C146.24 50.288 144.224 49.556 142.736 48.092C141.248 46.628 140.504 44.456 140.504 41.576V30.632H146.12V40.748C146.12 43.868 147.428 45.428 150.044 45.428C151.388 45.428 152.468 44.996 153.284 44.132C154.1 43.244 154.508 41.936 154.508 40.208V30.632H160.124ZM170.69 33.188C171.362 32.252 172.262 31.544 173.39 31.064C174.542 30.584 175.862 30.344 177.35 30.344V35.528C176.726 35.48 176.306 35.456 176.09 35.456C174.482 35.456 173.222 35.912 172.31 36.824C171.398 37.712 170.942 39.056 170.942 40.856V50H165.326V30.632H170.69V33.188ZM214.354 50L214.318 34.88L206.902 47.336H204.274L196.894 35.204V50H191.422V24.8H196.246L205.678 40.46L214.966 24.8H219.754L219.826 50H214.354ZM244.92 30.632V50H239.592V47.696C238.848 48.536 237.96 49.184 236.928 49.64C235.896 50.072 234.78 50.288 233.58 50.288C231.036 50.288 229.02 49.556 227.532 48.092C226.044 46.628 225.3 44.456 225.3 41.576V30.632H230.916V40.748C230.916 43.868 232.224 45.428 234.84 45.428C236.184 45.428 237.264 44.996 238.08 44.132C238.896 43.244 239.304 41.936 239.304 40.208V30.632H244.92ZM256.639 50.288C255.031 50.288 253.459 50.096 251.923 49.712C250.387 49.304 249.163 48.8 248.251 48.2L250.123 44.168C250.987 44.72 252.031 45.176 253.255 45.536C254.479 45.872 255.679 46.04 256.855 46.04C259.231 46.04 260.419 45.452 260.419 44.276C260.419 43.724 260.095 43.328 259.447 43.088C258.799 42.848 257.803 42.644 256.459 42.476C254.875 42.236 253.567 41.96 252.535 41.648C251.503 41.336 250.603 40.784 249.835 39.992C249.091 39.2 248.719 38.072 248.719 36.608C248.719 35.384 249.067 34.304 249.763 33.368C250.483 32.408 251.515 31.664 252.859 31.136C254.227 30.608 255.835 30.344 257.683 30.344C259.051 30.344 260.407 30.5 261.751 30.812C263.119 31.1 264.247 31.508 265.135 32.036L263.263 36.032C261.559 35.072 259.699 34.592 257.683 34.592C256.483 34.592 255.583 34.76 254.983 35.096C254.383 35.432 254.083 35.864 254.083 36.392C254.083 36.992 254.407 37.412 255.055 37.652C255.703 37.892 256.735 38.12 258.151 38.336C259.735 38.6 261.031 38.888 262.039 39.2C263.047 39.488 263.923 40.028 264.667 40.82C265.411 41.612 265.783 42.716 265.783 44.132C265.783 45.332 265.423 46.4 264.703 47.336C263.983 48.272 262.927 49.004 261.535 49.532C260.167 50.036 258.535 50.288 256.639 50.288ZM269.248 30.632H274.864V50H269.248V30.632ZM272.056 27.932C271.024 27.932 270.184 27.632 269.536 27.032C268.888 26.432 268.564 25.688 268.564 24.8C268.564 23.912 268.888 23.168 269.536 22.568C270.184 21.968 271.024 21.668 272.056 21.668C273.088 21.668 273.928 21.956 274.576 22.532C275.224 23.108 275.548 23.828 275.548 24.692C275.548 25.628 275.224 26.408 274.576 27.032C273.928 27.632 273.088 27.932 272.056 27.932ZM289.436 50.288C287.372 50.288 285.512 49.868 283.856 49.028C282.224 48.164 280.94 46.976 280.004 45.464C279.092 43.952 278.636 42.236 278.636 40.316C278.636 38.396 279.092 36.68 280.004 35.168C280.94 33.656 282.224 32.48 283.856 31.64C285.512 30.776 287.372 30.344 289.436 30.344C291.476 30.344 293.252 30.776 294.764 31.64C296.3 32.48 297.416 33.692 298.112 35.276L293.756 37.616C292.748 35.84 291.296 34.952 289.4 34.952C287.936 34.952 286.724 35.432 285.764 36.392C284.804 37.352 284.324 38.66 284.324 40.316C284.324 41.972 284.804 43.28 285.764 44.24C286.724 45.2 287.936 45.68 289.4 45.68C291.32 45.68 292.772 44.792 293.756 43.016L298.112 45.392C297.416 46.928 296.3 48.128 294.764 48.992C293.252 49.856 291.476 50.288 289.436 50.288Z" fill="#2E363E"/>
</g>
<defs>
<clipPath id="clip0">
<rect width="299" height="66" fill="white"/>
</clipPath>
<clipPath id="clip1">
<rect width="55.0692" height="51.7374" fill="white" transform="matrix(0.70924 -0.704967 0.70924 0.704967 4.2019 31.8218)"/>
</clipPath>
</defs>
</svg>
