<svg width="64" height="64" viewBox="0 0 64 64" fill="none" xmlns="http://www.w3.org/2000/svg">
<path d="M1.5 32C1.5 48.8447 15.1553 62.5 32 62.5C48.8447 62.5 62.5 48.8447 62.5 32C62.5 15.1553 48.8447 1.5 32 1.5C15.1553 1.5 1.5 15.1553 1.5 32Z" fill="white" stroke="black" stroke-width="3"/>
<path d="M31.6077 7C31.3476 7 31.0917 7.09155 30.887 7.27049L24.413 13.0465C24.2296 13.2087 24.1102 13.4251 24.0718 13.6623L23.769 15.5183L21.4276 29.205L23.3297 31.061L25.9824 15.5183H27.2406V34.8769L29.4241 37.0076V15.5183H33.7913V17.6489H31.6077V19.7795H33.7913V21.9101H31.6077V24.0408H33.7913V26.1714H31.6077V28.302H33.7913V30.4326H31.6077V32.5632H33.7913V34.6938H31.6077V36.8245H33.7913V38.9551H29.8762L16.0028 25.4182L16.0455 25.3766C16.2075 25.2184 16.2502 24.9687 16.1478 24.7648L14.4803 21.5065C14.3139 21.1777 13.8661 21.1112 13.606 21.365L12.7274 22.2222L10.5439 20.0916L9 21.598L11.1836 23.7287L10.3093 24.5859C10.0449 24.8397 10.1131 25.2725 10.4458 25.439L13.7851 27.0661C13.9983 27.1701 14.25 27.1285 14.4163 26.9662L14.4589 26.9246L20.7709 33.0792L17.4315 52.6293C17.3761 52.9372 17.4656 53.2535 17.6703 53.4907C17.8793 53.7321 18.1864 53.8694 18.5062 53.8694C18.5062 55.047 19.4829 56 20.6898 56C21.8968 56 22.8734 55.047 22.8734 53.8694H40.342C40.342 55.047 41.3187 56 42.5256 56C43.7326 56 44.7092 55.047 44.7092 53.8694C45.0291 53.8694 45.3361 53.7321 45.5451 53.4907C45.7498 53.2535 45.8394 52.9372 45.7839 52.6293L44.7263 46.4122H45.3489L46.1208 47.1654C46.3938 47.4442 46.8032 47.5566 47.1828 47.4567C47.5666 47.361 47.8651 47.0697 47.9632 46.6952C48.0656 46.3248 47.9504 45.9253 47.6647 45.659L46.5729 44.5937C46.3682 44.394 46.091 44.2816 45.801 44.2816H44.3595L43.997 42.151H45.801C46.1933 42.1552 46.5601 41.9554 46.7606 41.6225C46.9567 41.2896 46.9567 40.8818 46.7606 40.5489C46.5601 40.216 46.1933 40.0162 45.801 40.0204H43.6345L39.2332 14.2782C39.2332 14.2657 39.2247 14.2574 39.2204 14.2449L39.118 13.654C39.0797 13.421 38.9602 13.2087 38.7811 13.0465L32.3242 7.27049C32.1238 7.09155 31.8679 7 31.6077 7ZM31.6077 9.5842L35.8555 13.3877H27.3429L31.6077 9.5842ZM35.9749 15.5183H37.233L41.2376 38.9551H35.9749V15.5183ZM22.6687 34.931L26.7885 38.9551H21.9821L22.6687 34.931ZM21.6153 41.0857H41.6002L43.4212 51.7388H19.7985L21.6153 41.0857Z" fill="#373737"/>
</svg>
